<svg width="216" height="40" viewBox="0 0 216 40" fill="none" xmlns="http://www.w3.org/2000/svg">
<path d="M49.624 20.192C49.624 21.04 49.48 21.8213 49.192 22.536C48.9093 23.2453 48.5067 23.856 47.984 24.368C47.4667 24.88 46.8427 25.28 46.112 25.568C45.3813 25.856 44.5707 26 43.68 26H39.216V14.392H43.68C44.5707 14.392 45.3813 14.536 46.112 14.824C46.8427 15.112 47.4667 15.5147 47.984 16.032C48.5067 16.544 48.9093 17.1547 49.192 17.864C49.48 18.5733 49.624 19.3493 49.624 20.192ZM47.16 20.192C47.16 19.584 47.08 19.0373 46.92 18.552C46.76 18.0667 46.5307 17.656 46.232 17.32C45.9333 16.984 45.568 16.7253 45.136 16.544C44.7093 16.3627 44.224 16.272 43.68 16.272H41.632V24.12H43.68C44.224 24.12 44.7093 24.032 45.136 23.856C45.568 23.6747 45.9333 23.416 46.232 23.08C46.5307 22.7387 46.76 22.3253 46.92 21.84C47.08 21.3547 47.16 20.8053 47.16 20.192ZM55.5417 22.552C55.003 22.5787 54.555 22.6267 54.1977 22.696C53.8404 22.76 53.555 22.8453 53.3417 22.952C53.1337 23.0587 52.9844 23.1813 52.8937 23.32C52.8084 23.4533 52.7657 23.6 52.7657 23.76C52.7657 24.08 52.8537 24.3067 53.0297 24.44C53.211 24.5733 53.4617 24.64 53.7817 24.64C54.1497 24.64 54.467 24.576 54.7337 24.448C55.0057 24.3147 55.275 24.1093 55.5417 23.832V22.552ZM51.0457 18.896C51.531 18.4587 52.067 18.1333 52.6537 17.92C53.2404 17.7013 53.875 17.592 54.5577 17.592C55.0484 17.592 55.4857 17.672 55.8697 17.832C56.259 17.992 56.587 18.216 56.8537 18.504C57.1257 18.7867 57.3337 19.1253 57.4777 19.52C57.6217 19.9147 57.6937 20.3467 57.6937 20.816V26H56.6857C56.4777 26 56.3177 25.9707 56.2057 25.912C56.099 25.8533 56.011 25.7307 55.9417 25.544L55.7657 25.016C55.5577 25.1973 55.355 25.3573 55.1577 25.496C54.9657 25.6347 54.7657 25.752 54.5577 25.848C54.3497 25.9387 54.1257 26.008 53.8857 26.056C53.651 26.104 53.387 26.128 53.0937 26.128C52.731 26.128 52.4004 26.08 52.1017 25.984C51.803 25.888 51.5444 25.7467 51.3257 25.56C51.1124 25.368 50.947 25.1307 50.8297 24.848C50.7124 24.5653 50.6537 24.24 50.6537 23.872C50.6537 23.568 50.731 23.264 50.8857 22.96C51.0404 22.656 51.3044 22.3813 51.6777 22.136C52.0564 21.8853 52.5577 21.68 53.1817 21.52C53.811 21.3547 54.5977 21.2613 55.5417 21.24V20.816C55.5417 20.2987 55.4324 19.92 55.2137 19.68C54.995 19.4347 54.6804 19.312 54.2697 19.312C53.9657 19.312 53.7124 19.3493 53.5097 19.424C53.307 19.4933 53.1284 19.5707 52.9737 19.656C52.8244 19.736 52.683 19.8133 52.5497 19.888C52.4164 19.9573 52.2617 19.992 52.0857 19.992C51.931 19.992 51.8004 19.9547 51.6937 19.88C51.5924 19.8 51.507 19.7067 51.4377 19.6L51.0457 18.896ZM64.8785 19.448C64.8199 19.5387 64.7585 19.6053 64.6945 19.648C64.6359 19.6853 64.5532 19.704 64.4465 19.704C64.3399 19.704 64.2305 19.6773 64.1185 19.624C64.0065 19.5707 63.8812 19.5147 63.7425 19.456C63.6039 19.392 63.4439 19.3333 63.2625 19.28C63.0865 19.2267 62.8812 19.2 62.6465 19.2C62.2892 19.2 62.0119 19.2747 61.8145 19.424C61.6172 19.568 61.5185 19.76 61.5185 20C61.5185 20.1653 61.5745 20.304 61.6865 20.416C61.7985 20.528 61.9452 20.6267 62.1265 20.712C62.3132 20.792 62.5239 20.8693 62.7585 20.944C62.9932 21.0133 63.2332 21.0907 63.4785 21.176C63.7292 21.2613 63.9719 21.36 64.2065 21.472C64.4412 21.584 64.6492 21.7253 64.8305 21.896C65.0172 22.0613 65.1665 22.264 65.2785 22.504C65.3905 22.7387 65.4465 23.024 65.4465 23.36C65.4465 23.76 65.3719 24.1307 65.2225 24.472C65.0785 24.808 64.8652 25.0987 64.5825 25.344C64.2999 25.5893 63.9479 25.7813 63.5265 25.92C63.1052 26.0587 62.6199 26.128 62.0705 26.128C61.7879 26.128 61.5079 26.1013 61.2305 26.048C60.9532 26 60.6892 25.9307 60.4385 25.84C60.1879 25.744 59.9532 25.6347 59.7345 25.512C59.5159 25.3893 59.3265 25.256 59.1665 25.112L59.6785 24.288C59.7372 24.192 59.8092 24.1173 59.8945 24.064C59.9852 24.0107 60.0999 23.984 60.2385 23.984C60.3719 23.984 60.4945 24.0187 60.6065 24.088C60.7185 24.152 60.8439 24.224 60.9825 24.304C61.1212 24.3787 61.2839 24.4507 61.4705 24.52C61.6625 24.584 61.8999 24.616 62.1825 24.616C62.3959 24.616 62.5799 24.592 62.7345 24.544C62.8892 24.496 63.0145 24.432 63.1105 24.352C63.2065 24.2667 63.2759 24.1733 63.3185 24.072C63.3665 23.9653 63.3905 23.856 63.3905 23.744C63.3905 23.5627 63.3319 23.416 63.2145 23.304C63.1025 23.1867 62.9532 23.0853 62.7665 23C62.5852 22.9147 62.3745 22.8373 62.1345 22.768C61.8945 22.6987 61.6492 22.6213 61.3985 22.536C61.1532 22.4507 60.9105 22.3493 60.6705 22.232C60.4359 22.1147 60.2252 21.968 60.0385 21.792C59.8572 21.6107 59.7079 21.3893 59.5905 21.128C59.4785 20.8667 59.4225 20.5493 59.4225 20.176C59.4225 19.8347 59.4892 19.512 59.6225 19.208C59.7559 18.8987 59.9559 18.6267 60.2225 18.392C60.4892 18.1573 60.8199 17.9707 61.2145 17.832C61.6145 17.6933 62.0759 17.624 62.5985 17.624C63.1852 17.624 63.7185 17.72 64.1985 17.912C64.6785 18.104 65.0732 18.3547 65.3825 18.664L64.8785 19.448ZM69.37 18.56C69.5247 18.4213 69.6847 18.296 69.85 18.184C70.0207 18.0667 70.1993 17.968 70.386 17.888C70.578 17.8027 70.7807 17.7387 70.994 17.696C71.2127 17.648 71.4473 17.624 71.698 17.624C72.146 17.624 72.5433 17.7013 72.89 17.856C73.2367 18.0107 73.5273 18.2267 73.762 18.504C74.002 18.7813 74.1807 19.112 74.298 19.496C74.4207 19.88 74.482 20.3013 74.482 20.76V26H72.282V20.76C72.282 20.3013 72.1753 19.9467 71.962 19.696C71.7487 19.44 71.434 19.312 71.018 19.312C70.7087 19.312 70.418 19.3787 70.146 19.512C69.874 19.6453 69.6153 19.832 69.37 20.072V26H67.162V14.072H69.37V18.56ZM78.7815 23.824C78.9895 24.064 79.2135 24.232 79.4535 24.328C79.6988 24.424 79.9521 24.472 80.2135 24.472C80.4855 24.472 80.7308 24.424 80.9495 24.328C81.1735 24.2267 81.3655 24.0693 81.5255 23.856C81.6855 23.6373 81.8081 23.3547 81.8935 23.008C81.9788 22.6613 82.0215 22.2427 82.0215 21.752C82.0215 21.3147 81.9868 20.944 81.9175 20.64C81.8481 20.3307 81.7441 20.0773 81.6055 19.88C81.4721 19.6827 81.3068 19.5387 81.1095 19.448C80.9121 19.3573 80.6828 19.312 80.4215 19.312C80.0748 19.312 79.7735 19.3893 79.5175 19.544C79.2668 19.6933 79.0215 19.9147 78.7815 20.208V23.824ZM78.7815 18.704C79.1068 18.3787 79.4668 18.1173 79.8615 17.92C80.2561 17.7227 80.6988 17.624 81.1895 17.624C81.6641 17.624 82.0908 17.72 82.4695 17.912C82.8535 18.0987 83.1788 18.368 83.4455 18.72C83.7175 19.072 83.9255 19.4987 84.0695 20C84.2188 20.496 84.2935 21.0533 84.2935 21.672C84.2935 22.3387 84.2081 22.9467 84.0375 23.496C83.8721 24.04 83.6348 24.5067 83.3255 24.896C83.0161 25.2853 82.6455 25.5867 82.2135 25.8C81.7868 26.0133 81.3095 26.12 80.7815 26.12C80.5255 26.12 80.2961 26.0933 80.0935 26.04C79.8908 25.992 79.7041 25.9227 79.5335 25.832C79.3628 25.7413 79.2055 25.6347 79.0615 25.512C78.9175 25.384 78.7815 25.2427 78.6535 25.088L78.5655 25.584C78.5281 25.7387 78.4668 25.848 78.3815 25.912C78.2961 25.9707 78.1815 26 78.0375 26H76.5735V14.072H78.7815V18.704ZM89.7674 17.624C90.3861 17.624 90.9488 17.7227 91.4554 17.92C91.9621 18.1173 92.3968 18.4 92.7594 18.768C93.1221 19.1307 93.4021 19.5733 93.5994 20.096C93.7968 20.6187 93.8954 21.208 93.8954 21.864C93.8954 22.52 93.7968 23.112 93.5994 23.64C93.4021 24.1627 93.1221 24.608 92.7594 24.976C92.3968 25.344 91.9621 25.6267 91.4554 25.824C90.9488 26.0213 90.3861 26.12 89.7674 26.12C89.1434 26.12 88.5754 26.0213 88.0634 25.824C87.5568 25.6267 87.1221 25.344 86.7594 24.976C86.3968 24.608 86.1141 24.1627 85.9114 23.64C85.7141 23.112 85.6154 22.52 85.6154 21.864C85.6154 21.208 85.7141 20.6187 85.9114 20.096C86.1141 19.5733 86.3968 19.1307 86.7594 18.768C87.1221 18.4 87.5568 18.1173 88.0634 17.92C88.5754 17.7227 89.1434 17.624 89.7674 17.624ZM89.7674 24.464C90.3968 24.464 90.8634 24.248 91.1674 23.816C91.4714 23.3787 91.6234 22.7307 91.6234 21.872C91.6234 21.0187 91.4714 20.376 91.1674 19.944C90.8634 19.5067 90.3968 19.288 89.7674 19.288C89.1221 19.288 88.6474 19.5067 88.3434 19.944C88.0394 20.376 87.8874 21.0187 87.8874 21.872C87.8874 22.7307 88.0394 23.3787 88.3434 23.816C88.6474 24.248 89.1221 24.464 89.7674 24.464ZM99.9271 22.552C99.3885 22.5787 98.9405 22.6267 98.5831 22.696C98.2258 22.76 97.9405 22.8453 97.7271 22.952C97.5191 23.0587 97.3698 23.1813 97.2791 23.32C97.1938 23.4533 97.1511 23.6 97.1511 23.76C97.1511 24.08 97.2391 24.3067 97.4151 24.44C97.5965 24.5733 97.8471 24.64 98.1671 24.64C98.5351 24.64 98.8525 24.576 99.1191 24.448C99.3911 24.3147 99.6605 24.1093 99.9271 23.832V22.552ZM95.4311 18.896C95.9165 18.4587 96.4525 18.1333 97.0391 17.92C97.6258 17.7013 98.2605 17.592 98.9431 17.592C99.4338 17.592 99.8711 17.672 100.255 17.832C100.644 17.992 100.972 18.216 101.239 18.504C101.511 18.7867 101.719 19.1253 101.863 19.52C102.007 19.9147 102.079 20.3467 102.079 20.816V26H101.071C100.863 26 100.703 25.9707 100.591 25.912C100.484 25.8533 100.396 25.7307 100.327 25.544L100.151 25.016C99.9431 25.1973 99.7405 25.3573 99.5431 25.496C99.3511 25.6347 99.1511 25.752 98.9431 25.848C98.7351 25.9387 98.5111 26.008 98.2711 26.056C98.0365 26.104 97.7725 26.128 97.4791 26.128C97.1165 26.128 96.7858 26.08 96.4871 25.984C96.1885 25.888 95.9298 25.7467 95.7111 25.56C95.4978 25.368 95.3325 25.1307 95.2151 24.848C95.0978 24.5653 95.0391 24.24 95.0391 23.872C95.0391 23.568 95.1165 23.264 95.2711 22.96C95.4258 22.656 95.6898 22.3813 96.0631 22.136C96.4418 21.8853 96.9431 21.68 97.5671 21.52C98.1965 21.3547 98.9831 21.2613 99.9271 21.24V20.816C99.9271 20.2987 99.8178 19.92 99.5991 19.68C99.3805 19.4347 99.0658 19.312 98.6551 19.312C98.3511 19.312 98.0978 19.3493 97.8951 19.424C97.6925 19.4933 97.5138 19.5707 97.3591 19.656C97.2098 19.736 97.0685 19.8133 96.9351 19.888C96.8018 19.9573 96.6471 19.992 96.4711 19.992C96.3165 19.992 96.1858 19.9547 96.0791 19.88C95.9778 19.8 95.8925 19.7067 95.8231 19.6L95.4311 18.896ZM106.208 19.112C106.469 18.6427 106.771 18.272 107.112 18C107.453 17.728 107.853 17.592 108.312 17.592C108.685 17.592 108.989 17.68 109.224 17.856L109.08 19.488C109.053 19.5947 109.011 19.6693 108.952 19.712C108.899 19.7493 108.824 19.768 108.728 19.768C108.643 19.768 108.52 19.7573 108.36 19.736C108.2 19.7093 108.051 19.696 107.912 19.696C107.709 19.696 107.528 19.7253 107.368 19.784C107.213 19.8427 107.075 19.9253 106.952 20.032C106.829 20.1387 106.717 20.2693 106.616 20.424C106.52 20.5787 106.429 20.7547 106.344 20.952V26H104.136V17.752H105.44C105.664 17.752 105.819 17.792 105.904 17.872C105.989 17.952 106.051 18.0907 106.088 18.288L106.208 19.112ZM115.425 19.896C115.217 19.656 114.99 19.488 114.745 19.392C114.505 19.296 114.249 19.248 113.977 19.248C113.71 19.248 113.467 19.2987 113.249 19.4C113.03 19.5013 112.841 19.6613 112.681 19.88C112.526 20.0933 112.406 20.368 112.321 20.704C112.235 21.04 112.193 21.44 112.193 21.904C112.193 22.3627 112.227 22.752 112.297 23.072C112.366 23.392 112.465 23.6507 112.593 23.848C112.726 24.0453 112.886 24.1893 113.073 24.28C113.259 24.3653 113.467 24.408 113.697 24.408C114.086 24.408 114.411 24.3307 114.673 24.176C114.939 24.0213 115.19 23.8027 115.425 23.52V19.896ZM117.633 14.072V26H116.273C115.99 26 115.809 25.872 115.729 25.616L115.545 24.896C115.379 25.0773 115.203 25.2427 115.017 25.392C114.835 25.5413 114.638 25.672 114.425 25.784C114.211 25.8907 113.982 25.9733 113.737 26.032C113.491 26.0907 113.225 26.12 112.937 26.12C112.494 26.12 112.089 26.0267 111.721 25.84C111.353 25.6533 111.033 25.3813 110.761 25.024C110.494 24.6613 110.286 24.2187 110.137 23.696C109.987 23.1733 109.913 22.576 109.913 21.904C109.913 21.2907 109.995 20.72 110.161 20.192C110.331 19.664 110.571 19.208 110.881 18.824C111.19 18.44 111.563 18.1387 112.001 17.92C112.438 17.7013 112.923 17.592 113.457 17.592C113.905 17.592 114.281 17.6587 114.585 17.792C114.894 17.9253 115.174 18.1067 115.425 18.336V14.072H117.633ZM128.989 24.08C129.378 24.08 129.728 24.016 130.037 23.888C130.346 23.7547 130.608 23.568 130.821 23.328C131.034 23.088 131.197 22.7973 131.309 22.456C131.421 22.1147 131.477 21.7307 131.477 21.304V14.392H133.877V21.304C133.877 22.008 133.762 22.656 133.533 23.248C133.309 23.8347 132.986 24.3413 132.565 24.768C132.144 25.1947 131.632 25.528 131.029 25.768C130.426 26.008 129.746 26.128 128.989 26.128C128.232 26.128 127.549 26.008 126.941 25.768C126.338 25.528 125.826 25.1947 125.405 24.768C124.984 24.3413 124.658 23.8347 124.429 23.248C124.205 22.656 124.093 22.008 124.093 21.304V14.392H126.493V21.304C126.493 21.7307 126.549 22.1147 126.661 22.456C126.773 22.7973 126.936 23.088 127.149 23.328C127.362 23.568 127.624 23.7547 127.933 23.888C128.242 24.016 128.594 24.08 128.989 24.08ZM138.908 26H136.492V14.392H138.908V26ZM148.199 19.184H148.671C149.066 19.184 149.351 19.0613 149.527 18.816L152.463 14.888C152.602 14.7013 152.754 14.5733 152.919 14.504C153.085 14.4293 153.287 14.392 153.527 14.392H155.607L151.911 19.152C151.671 19.4613 151.423 19.6827 151.167 19.816C151.354 19.8907 151.522 19.9893 151.671 20.112C151.821 20.2293 151.965 20.3867 152.103 20.584L155.895 26H153.759C153.621 26 153.501 25.9893 153.399 25.968C153.303 25.9467 153.218 25.9173 153.143 25.88C153.069 25.8427 153.005 25.7973 152.951 25.744C152.898 25.6853 152.847 25.6187 152.799 25.544L149.815 21.368C149.714 21.224 149.594 21.1227 149.455 21.064C149.317 21 149.122 20.968 148.871 20.968H148.199V26H145.799V14.392H148.199V19.184ZM159.226 17.752V26H157.018V17.752H159.226ZM159.49 15.408C159.49 15.5947 159.452 15.768 159.378 15.928C159.303 16.088 159.202 16.2293 159.074 16.352C158.951 16.4747 158.804 16.5707 158.634 16.64C158.468 16.7093 158.29 16.744 158.098 16.744C157.916 16.744 157.743 16.7093 157.578 16.64C157.418 16.5707 157.276 16.4747 157.154 16.352C157.031 16.2293 156.932 16.088 156.858 15.928C156.788 15.768 156.754 15.5947 156.754 15.408C156.754 15.2213 156.788 15.048 156.858 14.888C156.932 14.7227 157.031 14.5787 157.154 14.456C157.276 14.3333 157.418 14.2373 157.578 14.168C157.743 14.0987 157.916 14.064 158.098 14.064C158.29 14.064 158.468 14.0987 158.634 14.168C158.804 14.2373 158.951 14.3333 159.074 14.456C159.202 14.5787 159.303 14.7227 159.378 14.888C159.452 15.048 159.49 15.2213 159.49 15.408ZM164.291 26.128C163.918 26.128 163.587 26.0747 163.299 25.968C163.011 25.856 162.769 25.6987 162.571 25.496C162.374 25.2933 162.225 25.048 162.123 24.76C162.022 24.472 161.971 24.1467 161.971 23.784V19.336H161.195C161.078 19.336 160.977 19.2987 160.891 19.224C160.811 19.1493 160.771 19.0373 160.771 18.888V18.024L162.091 17.784L162.539 15.648C162.598 15.408 162.761 15.288 163.027 15.288H164.179V17.8H166.307V19.336H164.179V23.64C164.179 23.8693 164.233 24.0507 164.339 24.184C164.451 24.3173 164.609 24.384 164.811 24.384C164.918 24.384 165.009 24.3733 165.083 24.352C165.158 24.3253 165.222 24.2987 165.275 24.272C165.329 24.24 165.377 24.2133 165.419 24.192C165.467 24.1653 165.515 24.152 165.563 24.152C165.627 24.152 165.681 24.168 165.723 24.2C165.766 24.2267 165.809 24.2747 165.851 24.344L166.515 25.4C166.211 25.64 165.867 25.8213 165.483 25.944C165.099 26.0667 164.702 26.128 164.291 26.128ZM178.874 23.976C179.114 23.976 179.3 24.0427 179.434 24.176C179.572 24.3093 179.642 24.4853 179.642 24.704V26H171.594V25.28C171.594 25.1413 171.623 24.992 171.682 24.832C171.74 24.6667 171.839 24.5173 171.978 24.384L175.418 20.936C175.711 20.6427 175.97 20.3627 176.194 20.096C176.418 19.824 176.604 19.56 176.754 19.304C176.903 19.0427 177.015 18.7787 177.09 18.512C177.164 18.2453 177.202 17.9653 177.202 17.672C177.202 17.1547 177.068 16.7627 176.802 16.496C176.535 16.224 176.159 16.088 175.674 16.088C175.46 16.088 175.263 16.12 175.082 16.184C174.906 16.2427 174.746 16.3253 174.602 16.432C174.463 16.5387 174.343 16.664 174.242 16.808C174.14 16.952 174.066 17.1093 174.018 17.28C173.922 17.5467 173.791 17.7253 173.626 17.816C173.466 17.9013 173.236 17.92 172.938 17.872L171.77 17.664C171.855 17.0987 172.015 16.6027 172.25 16.176C172.484 15.7493 172.778 15.3947 173.13 15.112C173.482 14.8293 173.884 14.6187 174.338 14.48C174.791 14.336 175.279 14.264 175.802 14.264C176.351 14.264 176.85 14.3467 177.298 14.512C177.751 14.672 178.138 14.8987 178.458 15.192C178.778 15.48 179.026 15.8293 179.202 16.24C179.378 16.6507 179.466 17.104 179.466 17.6C179.466 18.0267 179.404 18.4213 179.282 18.784C179.159 19.1467 178.991 19.4933 178.778 19.824C178.57 20.1493 178.327 20.4667 178.05 20.776C177.772 21.0853 177.479 21.3973 177.17 21.712L174.706 24.232C174.978 24.152 175.247 24.0907 175.514 24.048C175.78 24 176.031 23.976 176.266 23.976H178.874ZM181.256 24.84C181.256 24.664 181.288 24.4987 181.352 24.344C181.422 24.184 181.515 24.048 181.632 23.936C181.75 23.8187 181.886 23.728 182.04 23.664C182.2 23.5947 182.374 23.56 182.56 23.56C182.742 23.56 182.912 23.5947 183.072 23.664C183.232 23.728 183.371 23.8187 183.488 23.936C183.606 24.048 183.696 24.184 183.76 24.344C183.83 24.4987 183.864 24.664 183.864 24.84C183.864 25.0213 183.83 25.1893 183.76 25.344C183.696 25.4987 183.606 25.6347 183.488 25.752C183.371 25.864 183.232 25.952 183.072 26.016C182.912 26.08 182.742 26.112 182.56 26.112C182.374 26.112 182.2 26.08 182.04 26.016C181.886 25.952 181.75 25.864 181.632 25.752C181.515 25.6347 181.422 25.4987 181.352 25.344C181.288 25.1893 181.256 25.0213 181.256 24.84ZM193.722 20.192C193.722 21.2053 193.613 22.0853 193.394 22.832C193.175 23.5787 192.874 24.1973 192.49 24.688C192.106 25.1733 191.65 25.536 191.122 25.776C190.599 26.0107 190.034 26.128 189.426 26.128C188.818 26.128 188.253 26.0107 187.73 25.776C187.207 25.536 186.757 25.1733 186.378 24.688C185.999 24.1973 185.701 23.5787 185.482 22.832C185.269 22.0853 185.162 21.2053 185.162 20.192C185.162 19.1787 185.269 18.3013 185.482 17.56C185.701 16.8133 185.999 16.1973 186.378 15.712C186.757 15.2213 187.207 14.8587 187.73 14.624C188.253 14.384 188.818 14.264 189.426 14.264C190.034 14.264 190.599 14.384 191.122 14.624C191.65 14.8587 192.106 15.2213 192.49 15.712C192.874 16.1973 193.175 16.8133 193.394 17.56C193.613 18.3013 193.722 19.1787 193.722 20.192ZM191.442 20.192C191.442 19.3707 191.383 18.6933 191.266 18.16C191.154 17.6267 191.005 17.2053 190.818 16.896C190.631 16.5867 190.415 16.3707 190.17 16.248C189.93 16.1253 189.682 16.064 189.426 16.064C189.17 16.064 188.922 16.1253 188.682 16.248C188.447 16.3707 188.237 16.5867 188.05 16.896C187.869 17.2053 187.722 17.6267 187.61 18.16C187.498 18.6933 187.442 19.3707 187.442 20.192C187.442 21.0187 187.498 21.6987 187.61 22.232C187.722 22.7653 187.869 23.1867 188.05 23.496C188.237 23.8053 188.447 24.0213 188.682 24.144C188.922 24.2667 189.17 24.328 189.426 24.328C189.682 24.328 189.93 24.2667 190.17 24.144C190.415 24.0213 190.631 23.8053 190.818 23.496C191.005 23.1867 191.154 22.7653 191.266 22.232C191.383 21.6987 191.442 21.0187 191.442 20.192Z" fill="white"/>
<path fillRule="evenodd" clipRule="evenodd" d="M32 20C32 26.6274 26.6274 32 20 32C13.3726 32 8 26.6274 8 20C8 13.3726 13.3726 8 20 8C26.6274 8 32 13.3726 32 20ZM18.6078 13.3136L17.0522 13.0342H17.0516C16.474 12.9305 15.8797 13.0648 15.3994 13.4076C14.919 13.7505 14.5919 14.2737 14.4901 14.8622L13.0097 23.4228C12.9805 23.5909 13.018 23.7639 13.1139 23.9039C13.2099 24.0438 13.3565 24.1392 13.5215 24.169L16.0109 24.6159C16.341 24.6752 16.6806 24.5985 16.9552 24.4027C17.2297 24.2068 17.4167 23.9078 17.4749 23.5715L19.1202 14.0599C19.1347 13.9766 19.1329 13.8912 19.115 13.8086C19.097 13.7261 19.0633 13.6479 19.0157 13.5786C18.9682 13.5093 18.9076 13.4502 18.8376 13.4047C18.7676 13.3593 18.6895 13.3283 18.6078 13.3136ZM26.4774 16.036L21.4998 15.141C21.3363 15.1116 21.1688 15.1154 21.0067 15.152C20.8447 15.1886 20.6913 15.2574 20.5553 15.3545C20.4194 15.4515 20.3035 15.5749 20.2144 15.7176C20.1252 15.8603 20.0645 16.0194 20.0358 16.186L18.3898 25.697C18.3753 25.7804 18.377 25.8659 18.3949 25.9486C18.4129 26.0313 18.4466 26.1095 18.4943 26.1789C18.5419 26.2483 18.6026 26.3074 18.6727 26.3529C18.7428 26.3984 18.821 26.4293 18.9029 26.4439L21.7026 26.9461C22.152 27.0269 22.6127 27.0167 23.0582 26.9161C23.5038 26.8155 23.9255 26.6264 24.2994 26.3597C24.6733 26.093 24.9919 25.7538 25.2371 25.3616C25.4824 24.9694 25.6494 24.5317 25.7287 24.0737L26.9905 16.7816C27.0048 16.6984 27.0029 16.613 26.9849 16.5304C26.9669 16.4479 26.9331 16.3698 26.8855 16.3005C26.8378 16.2313 26.7773 16.1723 26.7073 16.1269C26.6372 16.0815 26.5591 16.0506 26.4774 16.036Z" fill="white"/>
</svg>
